# xmcd CD database file
#
# Track frame offsets:
#	150
#	13888
#	28978
#	42321
#	54469
#	70274
#	91663
#	109034
#	126183
#	140497
#
# Disc length: 2098 seconds
#
# Revision: 0
# Processed by: cddbd v1.5.2PL0 Copyright (c) Steve Scherf et al.
# Submitted via: CDex 1.51
#
DISCID=8908300a
DTITLE=jos slijpen work shop sept/okt o8 -  jos slijpen work shop sept/okt o8
DYEAR=1900
DGENRE=Country
TTITLE0=Am I
TTITLE1=Backwoods Girl
TTITLE2=Cheeky Cha
TTITLE3=Coupe de Ville
TTITLE4=Cow Boogie
TTITLE5=Gimme A Chance
TTITLE6=Love Love Love
TTITLE7=Small Stuff
TTITLE8=What This Country Needs
TTITLE9=You're My Jamaica
EXTD=
EXTT0=
EXTT1=
EXTT2=
EXTT3=
EXTT4=
EXTT5=
EXTT6=
EXTT7=
EXTT8=
EXTT9=
PLAYORDER=
